<?xml version="1.0" standalone="no"?>
<!DOCTYPE svg PUBLIC "-//W3C//DTD SVG 20010904//EN"
 "http://www.w3.org/TR/2001/REC-SVG-20010904/DTD/svg10.dtd">
<svg version="1.0" xmlns="http://www.w3.org/2000/svg"
 width="700.000000pt" height="700.000000pt" viewBox="0 0 700.000000 700.000000"
 preserveAspectRatio="xMidYMid meet">
<metadata>
Created by potrace 1.11, written by Peter Selinger 2001-2013
</metadata>
<g transform="translate(0.000000,700.000000) scale(0.100000,-0.100000)"
fill="#000000" stroke="none">
<path d="M4774 6031 c-17 -10 -38 -34 -47 -54 -16 -32 -17 -217 -17 -2482 l0
-2447 22 -39 c37 -66 121 -88 186 -49 67 41 62 -157 62 2542 0 2415 0 2453
-20 2485 -37 61 -124 82 -186 44z"/>
<path d="M1389 5471 l-39 -39 0 -1936 0 -1936 34 -38 c33 -35 38 -37 96 -37
58 0 63 2 95 36 26 29 35 49 40 90 3 30 5 898 3 1929 -3 1770 -4 1877 -21
1907 -22 42 -64 63 -123 63 -41 0 -51 -5 -85 -39z"/>
<path d="M4131 5152 c-19 -9 -44 -30 -55 -45 -21 -28 -21 -28 -24 -1575 -2
-1458 -1 -1549 15 -1582 22 -43 76 -80 117 -80 45 0 97 31 118 71 17 33 18 97
16 1591 l-3 1556 -25 27 c-52 56 -101 67 -159 37z"/>
<path d="M5483 4973 c-35 -7 -80 -56 -92 -100 -8 -30 -11 -432 -9 -1400 3
-1310 4 -1359 22 -1389 26 -43 66 -64 121 -64 42 0 52 5 86 39 l39 39 0 1391
c0 1558 6 1436 -73 1472 -42 19 -53 20 -94 12z"/>
<path d="M2083 4820 c-67 -41 -63 44 -63 -1257 0 -1150 1 -1179 20 -1210 27
-45 62 -65 114 -65 55 0 102 30 122 78 12 28 14 228 14 1200 0 1050 -2 1169
-16 1200 -33 68 -125 95 -191 54z"/>
<path d="M764 4574 c-45 -15 -79 -53 -88 -97 -8 -40 -8 -1876 0 -1917 10 -45
61 -96 107 -104 29 -5 49 -2 81 14 83 40 77 -40 74 1062 l-3 978 -31 30 c-39
40 -89 52 -140 34z"/>
<path d="M6130 4287 c-13 -7 -35 -28 -47 -46 l-23 -34 0 -711 c0 -688 1 -712
20 -743 54 -89 184 -80 232 17 17 32 18 88 18 725 0 656 -1 692 -19 732 -12
25 -32 48 -50 57 -36 19 -97 20 -131 3z"/>
<path d="M3435 4190 c-27 -11 -61 -49 -74 -83 -7 -19 -11 -216 -11 -589 0
-539 1 -563 20 -603 11 -22 33 -48 49 -58 60 -35 145 -14 181 46 19 31 20 54
20 617 0 563 -1 586 -20 617 -32 54 -106 78 -165 53z"/>
<path d="M62 4010 c-60 -37 -62 -50 -62 -453 0 -361 0 -364 23 -398 62 -93
191 -83 233 17 21 50 20 730 0 779 -19 44 -69 75 -121 75 -23 0 -54 -9 -73
-20z"/>
<path d="M6792 3920 c-59 -36 -62 -55 -62 -402 0 -278 2 -317 18 -347 25 -50
63 -74 116 -74 52 0 89 21 116 66 19 30 20 52 20 355 0 350 -1 358 -56 401
-35 28 -107 28 -152 1z"/>
<path d="M2759 3877 c-68 -45 -70 -56 -67 -394 3 -287 4 -303 24 -330 11 -15
37 -36 58 -47 49 -24 97 -15 144 29 l37 33 3 314 c2 289 1 316 -16 347 -36 67
-121 90 -183 48z"/>
</g>
</svg>
