<?xml version="1.0" standalone="no"?>
<!DOCTYPE svg PUBLIC "-//W3C//DTD SVG 20010904//EN"
 "http://www.w3.org/TR/2001/REC-SVG-20010904/DTD/svg10.dtd">
<svg version="1.0" xmlns="http://www.w3.org/2000/svg"
 width="700.000000pt" height="700.000000pt" viewBox="0 0 700.000000 700.000000"
 preserveAspectRatio="xMidYMid meet">
<metadata>
Created by potrace 1.11, written by Peter Selinger 2001-2013
</metadata>
<g transform="translate(0.000000,700.000000) scale(0.100000,-0.100000)"
fill="#000000" stroke="none">
<path d="M3404 6982 c-75 -26 -128 -74 -170 -152 -17 -31 -19 -62 -22 -248 -4
-250 4 -285 78 -364 130 -136 345 -118 452 37 42 62 50 118 46 340 -3 225 -8
243 -85 320 -74 75 -199 103 -299 67z"/>
<path d="M3407 5526 c-88 -32 -163 -110 -187 -196 -6 -22 -10 -687 -10 -1832
l0 -1797 21 -57 c24 -64 76 -122 141 -156 62 -33 194 -33 256 0 56 30 104 78
133 132 l24 45 0 1835 0 1835 -29 52 c-68 123 -222 184 -349 139z"/>
<path d="M216 5239 c-95 -23 -185 -116 -206 -212 -8 -37 -10 -473 -8 -1557 3
-1688 -4 -1535 79 -1625 59 -64 108 -87 194 -91 127 -5 230 58 283 174 l26 57
0 1490 c1 1044 -2 1505 -10 1540 -14 68 -39 112 -86 156 -72 67 -174 92 -272
68z"/>
<path d="M6619 5236 c-89 -31 -154 -95 -184 -182 -16 -46 -18 -152 -18 -1559
l-1 -1510 27 -57 c113 -249 458 -230 542 29 14 43 15 216 13 1563 l-3 1515
-22 45 c-30 60 -83 113 -141 141 -55 27 -158 34 -213 15z"/>
<path d="M2393 4945 c-97 -29 -181 -121 -199 -216 -8 -48 -8 -2419 1 -2460 27
-127 143 -221 275 -223 98 -3 164 26 228 99 77 87 72 -1 72 1358 0 1357 5
1265 -72 1352 -22 25 -63 57 -90 71 -58 29 -153 38 -215 19z"/>
<path d="M4402 4930 c-66 -31 -130 -98 -155 -161 -16 -39 -17 -144 -14 -1278
l2 -1236 22 -46 c82 -165 293 -217 439 -107 47 36 98 115 109 166 8 37 9 2424
1 2459 -39 179 -240 281 -404 203z"/>
<path d="M1384 4364 c-63 -18 -97 -39 -137 -83 -48 -53 -65 -88 -74 -152 -4
-30 -8 -324 -7 -654 1 -675 0 -663 75 -749 137 -155 381 -123 480 64 l24 45 3
646 c3 641 2 647 -19 704 -51 137 -210 219 -345 179z"/>
<path d="M5528 4375 c-2 -1 -22 -5 -44 -8 -86 -12 -160 -71 -204 -162 l-29
-60 -1 -637 c0 -624 0 -638 21 -693 14 -37 37 -73 70 -105 169 -167 456 -68
487 168 4 31 7 325 6 652 -1 672 1 658 -77 746 -45 51 -118 90 -185 97 -22 3
-42 4 -44 2z"/>
<path d="M3439 865 c-90 -18 -156 -68 -201 -155 -22 -42 -23 -58 -26 -255 -3
-193 -2 -215 17 -266 89 -238 423 -250 534 -19 21 42 22 60 22 270 0 216 -1
227 -23 270 -65 124 -187 183 -323 155z"/>
</g>
</svg>
